<svg version="1.0" xmlns="http://www.w3.org/2000/svg" preserveAspectRatio="xMidYMid meet" viewBox="39 49.41 435.04 433.56">  <g transform="translate(0.000000,512.000000) scale(0.100000,-0.100000)" stroke="2px"> <path d="M3255 4614 c-196 -43 -363 -179 -447 -363 -60 -131 -58 -55 -58 -1756 0 -1360 -2 -1568 -15 -1624 -48 -200 -200 -355 -400 -406 -69 -18 -211 -20 -287 -4 -92 19 -196 77 -268 149 -118 119 -160 231 -160 436 l0 120 42 19 c64 28 132 97 162 164 23 51 30 60 60 65 49 9 112 59 138 108 27 53 29 138 4 187 -17 32 -17 35 3 81 24 55 26 120 7 165 -12 29 -11 30 43 71 71 52 182 170 228 242 53 82 98 185 124 282 32 119 33 346 0 465 -94 348 -366 609 -714 687 -132 29 -334 22 -462 -16 -315 -95 -552 -336 -646 -657 -32 -112 -38 -324 -11 -444 50 -225 193 -446 365 -564 41 -28 48 -37 41 -55 -4 -11 -9 -47 -11 -79 -4 -44 0 -67 17 -101 20 -42 20 -47 5 -69 -25 -39 -30 -120 -11 -171 22 -56 83 -113 140 -128 40 -10 46 -16 65 -64 12 -28 42 -72 67 -97 44 -45 132 -97 165 -97 15 0 17 -17 21 -152 4 -131 9 -165 31 -233 71 -214 240 -383 454 -452 96 -31 273 -42 379 -24 218 38 411 184 508 383 81 165 76 53 76 1796 0 1012 4 1568 10 1603 47 247 297 422 543 381 193 -33 343 -170 392 -357 13 -51 15 -169 15 -817 l0 -758 -99 0 c-89 0 -103 -2 -125 -22 -23 -20 -46 -98 -181 -600 -85 -317 -155 -590 -155 -606 0 -16 9 -40 19 -53 19 -24 21 -24 245 -27 124 -2 226 -6 226 -10 0 -4 -43 -144 -95 -312 -85 -271 -94 -307 -84 -332 14 -34 37 -48 76 -48 39 0 37 -2 548 605 241 286 451 535 467 553 36 41 38 90 5 120 -23 21 -30 22 -285 22 -144 0 -262 2 -262 4 0 2 59 137 130 300 82 187 130 310 130 331 0 24 -7 39 -26 54 -25 19 -40 21 -200 21 l-174 0 0 763 c0 857 1 842 -72 987 -75 150 -219 271 -381 322 -85 26 -233 32 -322 12z m-1573 -1069 c437 -92 710 -543 588 -973 -53 -188 -184 -360 -350 -461 -34 -20 -46 -21 -402 -21 l-366 0 -75 50 c-128 86 -230 213 -286 359 -38 99 -51 173 -51 291 0 123 25 225 87 350 40 81 60 109 142 190 81 81 111 103 191 143 52 26 129 56 170 67 92 23 256 26 352 5z m2548 -1178 c0 -2 -58 -138 -130 -302 -71 -164 -130 -310 -130 -325 0 -15 9 -38 19 -51 19 -24 21 -24 255 -27 130 -2 236 -5 236 -8 0 -5 -536 -641 -572 -679 -18 -20 -19 -20 -9 10 51 157 91 297 91 320 0 16 -10 39 -22 52 -21 23 -24 23 -250 23 -214 0 -229 1 -224 18 3 9 62 228 131 486 69 259 128 474 131 478 5 7 474 12 474 5z m-2362 -453 c24 -17 29 -53 10 -72 -17 -17 -699 -17 -716 0 -18 18 -15 65 6 77 10 7 142 11 347 11 283 0 334 -2 353 -16z m0 -260 c26 -18 28 -46 6 -68 -13 -14 -60 -16 -358 -16 -253 0 -345 3 -354 12 -18 18 -15 65 6 77 10 7 142 11 347 11 283 0 334 -2 353 -16z m-198 -253 c0 -20 -62 -71 -98 -81 -51 -14 -76 -13 -119 5 -41 17 -70 40 -84 67 -9 17 0 18 146 18 88 0 155 -4 155 -9z"></path> <path d="M1442 4377 c-21 -23 -22 -31 -22 -253 0 -228 0 -231 23 -252 34 -32 89 -30 116 4 20 25 21 39 21 251 l0 224 -25 24 c-32 33 -83 34 -113 2z"></path> <path d="M435 3998 c-31 -18 -44 -40 -45 -73 0 -25 26 -55 173 -202 147 -147 177 -173 202 -173 52 1 92 50 80 98 -7 30 -293 325 -337 348 -32 17 -46 17 -73 2z"></path> <path d="M2333 3837 c-153 -153 -173 -176 -173 -205 0 -38 38 -82 70 -82 12 0 33 6 48 14 41 22 332 320 333 342 3 42 -3 60 -27 82 -50 45 -64 36 -251 -151z"></path> </g> </svg>
