<svg version="1.0" xmlns="http://www.w3.org/2000/svg" width="24" height="24" viewBox="87.21 87.43 337.65 337.33"><path d="M237 88c-27.8 3.4-56 14.2-78 29.8-12.2 8.6-32.6 29-41.2 41.2-32.6 46.1-39.7 106.9-18.6 159.8 15.9 40 48.9 74 88.6 91.6 49.8 22.1 108.5 18.5 154.7-9.4 73.4-44.3 102.4-135.5 67.9-213.2-22.7-51.4-70.4-88.6-125.9-98.3-10.9-1.9-37.1-2.7-47.5-1.5zm33.1 10.1c21.2 2.1 38 6.9 56.4 16 15.8 7.8 28.6 17.1 41.5 29.9 12.5 12.5 21.9 25.5 29.5 40.5 22.8 45.6 22.8 97.4 0 143-7.6 15-17 28-29.5 40.5-12.9 12.8-25.7 22.1-41.5 29.9-38.2 18.9-80 21.9-120.5 8.5-47.4-15.7-84.7-53-100.4-100.4-11-33.4-11-66.6 0-100 19.6-59.3 72.2-101.4 134.9-107.9 11.7-1.2 18-1.2 29.6 0z"></path><path d="M246 150.9c-4.3 2.3-8.6 6.5-10.8 10.6-2.2 4.1-2.2 15.9 0 20 6.3 11.7 20.4 16.1 31.7 9.9 15.8-8.5 15.9-31.2.2-39.7-6.1-3.4-15.6-3.7-21.1-.8zm17.1 10.4c1.9 1.3 4 3.9 4.8 6.1 1.3 3.3 1.3 4.4 0 7.9-3.9 11.3-19.6 11.5-23.8.3-4.2-11.1 9-21.1 19-14.3zM248 211.6c-4.5 2-7.7 5-10.1 9.7-1.9 3.6-1.9 6.2-1.7 64.1.3 59.3.3 60.5 2.4 63.2 1.1 1.5 3.7 4.2 5.8 5.8 3.5 2.9 4.4 3.1 11.6 3.1 7.2 0 8.1-.2 11.6-3.1 2.1-1.6 4.7-4.3 5.8-5.8 2.1-2.7 2.1-3.9 2.4-63.2.2-57.9.2-60.5-1.7-64.1-4.9-9.7-16.4-13.9-26.1-9.7zm15.3 12.4 2.7 3v114.9l-2.4 2.8c-2.1 2.4-3.2 2.8-7.6 2.8-4.4 0-5.5-.4-7.6-2.8l-2.4-2.8V285c0-40.3.3-57.6 1.1-59.4 1.5-3.3 6.6-5.8 10.4-5.1 1.7.3 4.2 1.9 5.8 3.5z"></path></svg>
