<svg version="1.0" xmlns="http://www.w3.org/2000/svg" preserveAspectRatio="xMidYMid meet"
    viewBox="51.38 0.08 409.14 511.92">
    <g transform="translate(0.000000,512.000000) scale(0.100000,-0.100000)">
        <path
            d="M1125 5103 c-298 -63 -528 -295 -597 -598 -19 -89 -19 -3801 0 -3890 69 -307 301 -537 604 -599 68 -14 234 -16 1428 -16 1191 0 1360 2 1428 16 161 33 271 93 393 215 73 72 95 103 137 187 95 189 87 -1 87 2152 l0 1895 -22 77 c-84 295 -304 503 -595 562 -68 14 -235 16 -1435 15 -1166 -1 -1368 -3 -1428 -16z m2895 -170 c183 -63 336 -214 396 -393 18 -53 19 -131 19 -1980 0 -1849 -1 -1927 -19 -1980 -61 -182 -217 -335 -401 -393 l-70 -22 -1385 0 -1385 0 -70 22 c-180 57 -329 199 -398 380 l-22 58 -3 1909 c-3 2107 -7 1960 60 2096 42 85 169 213 255 258 34 18 95 41 135 52 70 18 120 19 1448 17 l1375 -2 65 -22z">
        </path>
        <path
            d="M1123 4750 c-90 -18 -173 -83 -215 -169 l-23 -46 -3 -1962 c-2 -1957 -2 -1962 18 -2017 26 -69 85 -130 158 -164 l57 -27 1445 0 1445 0 57 27 c73 34 132 95 158 164 20 55 20 60 18 2017 l-3 1962 -23 46 c-31 64 -85 117 -151 148 l-56 26 -1420 2 c-781 0 -1439 -3 -1462 -7z m2887 -175 c19 -12 43 -36 52 -55 17 -33 18 -147 18 -1960 0 -1813 -1 -1927 -18 -1960 -9 -19 -33 -43 -52 -55 -35 -20 -45 -20 -1450 -20 -1405 0 -1415 0 -1450 20 -19 12 -43 36 -52 55 -17 33 -18 147 -18 1958 0 2032 -1 1963 43 2001 50 41 28 40 1492 38 1388 -2 1400 -2 1435 -22z">
        </path>
        <path
            d="M2368 4250 c-259 -64 -477 -259 -568 -507 -54 -151 -64 -338 -25 -488 41 -156 162 -336 291 -433 155 -117 300 -165 494 -165 194 0 342 49 494 164 129 99 250 278 291 434 39 150 29 337 -25 488 -72 195 -235 372 -424 457 -154 70 -365 90 -528 50z m404 -172 c101 -38 175 -85 248 -159 118 -120 178 -253 187 -419 10 -191 -52 -355 -186 -490 -132 -134 -276 -194 -461 -194 -185 0 -329 60 -461 194 -352 355 -187 949 301 1085 88 24 286 15 372 -17z">
        </path>
        <path
            d="M2273 3680 c-38 -15 -43 -41 -43 -218 0 -156 2 -171 21 -196 28 -35 80 -36 114 -1 25 24 25 27 25 189 0 176 -6 207 -47 225 -28 13 -40 13 -70 1z">
        </path>
        <path
            d="M2774 3679 c-38 -19 -44 -52 -44 -225 0 -162 0 -165 25 -189 34 -35 86 -34 114 1 19 25 21 40 21 199 0 150 -2 176 -17 194 -21 25 -70 35 -99 20z">
        </path>
        <path
            d="M2418 2455 c-260 -49 -475 -214 -588 -449 -50 -104 -69 -178 -77 -298 -15 -230 61 -437 220 -605 161 -169 355 -253 587 -253 338 0 628 198 754 514 59 146 71 348 31 501 -24 91 -98 232 -164 311 -182 219 -488 331 -763 279z m328 -176 c112 -34 182 -77 270 -164 138 -138 201 -301 191 -495 -9 -166 -69 -299 -187 -419 -73 -73 -146 -120 -248 -159 -61 -24 -80 -26 -212 -26 -132 0 -151 2 -212 26 -100 38 -173 85 -247 158 -200 199 -247 492 -120 750 73 148 219 274 377 325 124 40 266 42 388 4z">
        </path>
        <path
            d="M2251 1854 c-19 -25 -21 -40 -21 -201 0 -171 0 -174 25 -198 26 -27 70 -32 96 -12 34 26 39 55 39 222 0 163 0 166 -25 190 -34 35 -86 34 -114 -1z">
        </path>
        <path
            d="M2755 1855 c-25 -24 -25 -27 -25 -190 0 -167 5 -196 39 -222 26 -20 70 -15 96 12 25 24 25 27 25 198 0 161 -2 176 -21 201 -28 35 -80 36 -114 1z">
        </path>
    </g>
</svg>
