<svg height="20" viewBox="0 0 5.292 5.292" width="20" xmlns="http://www.w3.org/2000/svg"><path d="M37.57 17.462a2.65 2.65 0 0 0-2.645 2.646 2.65 2.65 0 0 0 2.646 2.646 2.65 2.65 0 0 0 2.646-2.646 2.65 2.65 0 0 0-2.646-2.646z" style="color:#000;font-style:normal;font-variant:normal;font-weight:400;font-stretch:normal;font-size:medium;line-height:normal;font-family:sans-serif;font-variant-ligatures:normal;font-variant-position:normal;font-variant-caps:normal;font-variant-numeric:normal;font-variant-alternates:normal;font-variant-east-asian:normal;font-feature-settings:normal;font-variation-settings:normal;text-indent:0;text-align:start;text-decoration:none;text-decoration-line:none;text-decoration-style:solid;text-decoration-color:#000;letter-spacing:normal;word-spacing:normal;text-transform:none;writing-mode:lr-tb;direction:ltr;text-orientation:mixed;dominant-baseline:auto;baseline-shift:baseline;text-anchor:start;white-space:normal;shape-padding:0;shape-margin:0;inline-size:0;clip-rule:nonzero;display:inline;overflow:visible;visibility:visible;isolation:auto;mix-blend-mode:normal;color-interpolation:sRGB;color-interpolation-filters:linearRGB;solid-color:#000;solid-opacity:1;vector-effect:none;fill:#82bbfb;fill-opacity:1;fill-rule:nonzero;stroke:none;stroke-width:.529169;stroke-linecap:round;stroke-linejoin:round;stroke-miterlimit:4;stroke-dasharray:none;stroke-dashoffset:0;stroke-opacity:1;color-rendering:auto;image-rendering:auto;shape-rendering:auto;text-rendering:auto;enable-background:accumulate;stop-color:#000" transform="translate(-34.925 -17.462)"/><path d="M37.571 21.138c-.172.003-.277-.14-.277-.28v-.844c.004-.184.141-.276.28-.28a.278.278 0 0 1 .278.282v.84c0 .18-.147.283-.28.282zm-.208-1.548a.29.29 0 0 1-.085-.213c.005-.175.138-.3.293-.298.21.006.29.158.293.3a.288.288 0 0 1-.293.296.283.283 0 0 1-.208-.085z" style="font-style:normal;font-variant:normal;font-weight:400;font-stretch:normal;font-size:2.50582px;line-height:1.25;font-family:&quot;Anja Eliane accent&quot;;-inkscape-font-specification:&quot;Anja Eliane accent, Normal&quot;;font-variant-ligatures:normal;font-variant-caps:normal;font-variant-numeric:normal;font-variant-east-asian:normal;fill:#007ff9;fill-opacity:1;stroke:none;stroke-width:.264583" transform="translate(-34.925 -17.462)"/><path d="M151.479 79.158a17.202 32.202 69.882 0 1-3.563 1.436 17.202 32.202 69.882 0 1-12.346 3.05A9.947 9.947 0 0 0 142 86c4.406 0 8.151-2.874 9.479-6.842z" style="color:#000;font-style:normal;font-variant:normal;font-weight:400;font-stretch:normal;font-size:medium;line-height:normal;font-family:sans-serif;font-variant-ligatures:normal;font-variant-position:normal;font-variant-caps:normal;font-variant-numeric:normal;font-variant-alternates:normal;font-variant-east-asian:normal;font-feature-settings:normal;font-variation-settings:normal;text-indent:0;text-align:start;text-decoration:none;text-decoration-line:none;text-decoration-style:solid;text-decoration-color:#000;letter-spacing:normal;word-spacing:normal;text-transform:none;writing-mode:lr-tb;direction:ltr;text-orientation:mixed;dominant-baseline:auto;baseline-shift:baseline;text-anchor:start;white-space:normal;shape-padding:0;shape-margin:0;inline-size:0;clip-rule:nonzero;display:inline;overflow:visible;visibility:visible;isolation:auto;mix-blend-mode:normal;color-interpolation:sRGB;color-interpolation-filters:linearRGB;solid-color:#000;solid-opacity:1;vector-effect:none;fill:#65a3fc;fill-opacity:1;fill-rule:nonzero;stroke:none;stroke-width:2.00001;stroke-linecap:round;stroke-linejoin:round;stroke-miterlimit:4;stroke-dasharray:none;stroke-dashoffset:0;stroke-opacity:1;color-rendering:auto;image-rendering:auto;shape-rendering:auto;text-rendering:auto;enable-background:accumulate;stop-color:#000" transform="matrix(.26458 0 0 .26458 -34.925 -17.462)"/></svg>
