<svg version="1.0" xmlns="http://www.w3.org/2000/svg" preserveAspectRatio="xMidYMid meet" viewBox="23.96 108.08 464.04 295.84">  <g transform="translate(0.000000,512.000000) scale(0.100000,-0.100000)" stroke="none"> <path d="M1440 4024 c-102 -22 -186 -68 -261 -144 -94 -95 -118 -153 -168 -390 -23 -107 -43 -205 -46 -218 -5 -20 -11 -23 -43 -20 l-37 3 -3 95 c-4 148 14 140 -319 140 l-274 0 -24 -25 c-25 -24 -25 -26 -25 -204 0 -243 -23 -220 280 -271 339 -57 351 -56 360 46 4 46 9 60 23 62 22 5 22 -15 -3 -125 -20 -85 -23 -90 -58 -108 -69 -37 -176 -155 -215 -236 -47 -99 -54 -136 -77 -402 -24 -269 -29 -900 -8 -969 15 -50 78 -122 132 -151 40 -21 51 -22 336 -22 283 0 297 1 335 22 93 50 144 137 145 246 l0 67 1070 0 1070 0 0 -67 c1 -109 52 -196 145 -246 38 -21 55 -22 313 -25 235 -3 280 -1 324 14 60 20 121 71 151 128 21 40 22 54 25 391 2 290 -1 392 -18 595 -12 135 -28 271 -35 303 -31 124 -113 246 -215 321 -33 25 -64 46 -69 48 -9 3 -51 170 -51 203 0 8 9 15 20 15 17 0 20 -7 20 -53 0 -43 5 -58 23 -75 32 -30 61 -29 337 18 305 51 282 28 278 277 -3 180 -4 185 -27 204 -22 18 -42 19 -295 19 -272 0 -273 0 -294 -23 -19 -20 -22 -35 -22 -115 l0 -92 -40 0 c-33 0 -41 4 -45 23 -3 12 -23 108 -45 212 -49 233 -76 292 -171 388 -78 78 -173 128 -280 146 -46 8 -383 11 -1110 10 -858 0 -1056 -3 -1109 -15z m2281 -175 c31 -15 74 -43 96 -63 76 -68 94 -120 168 -471 36 -176 69 -330 72 -342 l5 -23 -1502 0 -1502 0 5 23 c4 12 36 164 72 337 37 173 75 334 86 358 41 95 114 160 216 192 55 18 107 19 1143 17 l1085 -2 56 -26z m-3001 -625 c0 -105 0 -106 -22 -100 -13 3 -85 16 -160 28 l-138 22 0 78 0 78 160 0 160 0 0 -106z m4000 28 l0 -79 -137 -22 c-76 -13 -148 -25 -160 -28 -23 -5 -23 -4 -23 101 l0 106 160 0 160 0 0 -78z m-685 -472 c167 -24 306 -149 344 -310 27 -113 51 -498 51 -823 0 -351 -2 -367 -51 -393 -36 -18 -497 -21 -532 -3 -42 21 -57 51 -57 112 l0 57 93 0 c101 0 130 11 148 58 12 32 -4 75 -34 91 -15 8 -140 12 -397 14 l-375 2 -3 130 c-2 116 -5 132 -24 152 l-21 23 -616 0 c-533 -1 -619 -3 -636 -16 -18 -13 -21 -30 -25 -152 l-5 -137 -375 -2 c-257 -2 -382 -6 -397 -14 -30 -16 -46 -59 -34 -91 18 -47 47 -58 148 -58 l93 0 0 -57 c0 -61 -15 -91 -57 -112 -35 -18 -496 -15 -532 3 -49 26 -51 42 -51 391 0 323 24 713 51 825 37 158 176 286 335 309 85 12 2872 13 2959 1z m-975 -1125 l0 -75 -500 0 -500 0 0 75 0 75 500 0 500 0 0 -75z"></path> <path d="M1005 2526 c-107 -50 -165 -143 -165 -267 0 -61 5 -85 26 -127 29 -59 79 -106 143 -136 44 -20 62 -21 352 -21 l305 0 59 30 c135 69 193 230 124 341 -39 64 -82 79 -405 144 -164 33 -319 60 -344 60 -26 0 -66 -10 -95 -24z m410 -192 c154 -31 286 -61 293 -66 34 -29 -14 -110 -76 -128 -48 -13 -496 -13 -544 0 -53 15 -88 61 -88 116 0 78 45 133 110 134 14 0 151 -25 305 -56z"></path> <path d="M3705 2488 c-334 -68 -358 -78 -399 -160 -15 -30 -26 -69 -26 -92 0 -83 73 -191 158 -233 34 -16 67 -18 367 -18 l330 0 46 27 c93 55 141 139 141 248 0 118 -55 210 -155 260 -84 42 -119 39 -462 -32z m403 -114 c33 -23 52 -67 52 -120 0 -39 -5 -51 -34 -80 l-34 -34 -292 0 -292 0 -28 29 c-34 33 -48 77 -31 94 14 14 538 125 596 126 22 1 51 -6 63 -15z"></path> </g> </svg>
