<svg version="1.0" xmlns="http://www.w3.org/2000/svg" preserveAspectRatio="xMidYMid meet" viewBox="30.02 16.21 451.98 479.79">  <g transform="translate(0.000000,512.000000) scale(0.100000,-0.100000)" fill="currentcolor" stroke="none"> <path d="M2274 4942 c-89 -31 -155 -95 -208 -199 l-26 -53 -213 0 c-230 0 -305 -8 -410 -45 -214 -74 -379 -261 -407 -460 -5 -41 -10 -392 -10 -839 0 -665 -2 -767 -14 -757 -22 19 -74 16 -96 -4 -12 -11 -58 -87 -103 -171 l-82 -152 -145 -79 c-158 -85 -200 -118 -200 -157 0 -41 37 -70 195 -156 l150 -81 79 -147 c43 -81 88 -157 99 -170 23 -25 84 -31 105 -10 9 9 12 -15 12 -109 l0 -120 -49 -6 c-95 -11 -189 -54 -403 -183 -117 -71 -221 -137 -230 -146 -25 -25 -23 -83 2 -108 40 -40 71 -29 300 110 242 147 297 169 441 177 126 7 217 -13 350 -78 154 -75 228 -93 384 -93 158 0 216 14 375 90 64 30 147 61 185 69 138 29 298 12 405 -43 30 -16 83 -43 118 -61 103 -53 198 -73 342 -73 158 0 244 21 395 98 62 32 138 62 175 70 135 29 317 12 416 -39 27 -14 137 -79 244 -146 107 -67 205 -121 218 -121 28 0 82 51 82 78 0 37 -41 70 -244 196 -202 125 -286 168 -358 181 l-37 7 53 49 c101 92 149 223 149 404 0 120 -17 204 -59 288 -32 63 -97 133 -148 159 -54 27 -138 28 -191 0 -52 -26 -114 -93 -144 -154 l-23 -48 -69 0 -69 0 0 584 0 585 28 -15 c64 -33 87 -12 192 182 l82 151 126 68 c219 118 233 131 211 194 -9 26 -35 44 -161 112 -82 45 -158 89 -168 98 -10 9 -56 84 -101 166 -44 83 -86 153 -91 156 -22 14 34 19 215 19 l192 0 30 -57 c36 -70 108 -142 171 -173 73 -36 180 -34 252 3 102 54 182 164 217 302 20 77 20 243 0 320 -98 383 -478 455 -646 123 l-28 -56 -258 -4 c-235 -4 -264 -6 -328 -27 -219 -71 -381 -228 -431 -415 -10 -38 -14 -131 -14 -363 l0 -313 -790 0 -790 0 0 295 0 295 34 38 34 37 229 3 228 3 24 -47 c36 -67 101 -135 163 -169 46 -26 63 -30 133 -30 98 0 153 24 224 96 91 92 141 232 141 394 0 159 -47 290 -138 387 -89 95 -209 129 -318 90z m153 -159 c42 -20 93 -87 119 -157 15 -40 19 -77 18 -166 0 -140 -23 -209 -89 -276 -71 -70 -136 -72 -208 -4 l-42 38 30 7 c102 21 121 30 171 79 43 42 54 60 64 106 29 133 -68 255 -220 277 l-53 8 29 34 c58 69 114 86 181 54z m2091 -17 c42 -22 78 -66 109 -131 26 -56 28 -69 28 -185 0 -150 -21 -217 -90 -285 -70 -71 -137 -71 -208 -2 l-42 41 50 7 c125 16 225 118 225 228 0 110 -101 213 -225 229 l-58 7 29 34 c56 67 123 88 182 57z m-2234 -246 c33 -12 59 -53 51 -80 -4 -11 -18 -28 -33 -38 -23 -15 -67 -18 -382 -22 -344 -5 -356 -6 -397 -28 -63 -33 -109 -77 -135 -130 l-23 -47 -5 -1006 -5 -1006 -90 50 c-49 27 -93 55 -97 61 -12 17 -10 1821 2 1890 27 169 175 308 371 351 76 16 702 21 743 5z m2099 -21 c51 -23 59 -86 14 -112 -16 -9 -117 -13 -367 -17 l-345 -5 -63 -29 c-67 -31 -124 -86 -150 -145 -11 -25 -17 -78 -20 -173 -5 -157 3 -143 -115 -208 l-78 -42 3 213 c3 214 3 214 32 272 56 109 189 209 324 241 74 18 728 22 765 5z m-647 -645 l58 -105 103 -55 c57 -31 103 -59 103 -62 0 -4 -47 -32 -103 -62 l-102 -55 -59 -107 -60 -107 -60 107 -61 107 -94 52 c-51 28 -97 55 -102 60 -6 6 34 33 95 67 l105 57 56 104 c31 58 58 105 60 105 2 0 30 -47 61 -106z m-376 -413 l85 -48 3 -1156 2 -1156 -37 -11 c-21 -6 -64 -14 -95 -17 l-58 -6 0 1222 c0 671 3 1221 8 1220 4 0 45 -22 92 -48z m-265 -141 l0 -85 -787 -3 -788 -2 0 90 0 90 788 -2 787 -3 0 -85z m3 -517 l-3 -268 -787 -3 -788 -2 0 270 0 270 790 0 790 0 -2 -267z m-2097 -536 l55 -102 108 -59 c93 -51 105 -61 89 -70 -10 -6 -58 -33 -108 -61 l-90 -50 -55 -102 c-30 -57 -57 -103 -60 -103 -3 0 -30 46 -61 103 l-56 102 -89 50 c-49 28 -97 55 -108 61 -16 10 -5 19 89 70 l108 59 56 103 c31 56 58 102 61 102 3 0 30 -46 61 -103z m2099 18 l0 -85 -790 0 -790 0 0 85 0 85 790 0 790 0 0 -85z m-1410 -248 c0 -2 -9 -22 -20 -46 l-21 -42 -62 3 -62 3 -3 43 -3 42 85 0 c47 0 86 -1 86 -3z m1408 -269 l2 -268 -456 0 -456 0 6 23 c4 12 12 59 18 105 19 134 0 244 -69 400 -4 10 91 12 473 10 l479 -3 3 -267z m-1153 246 c24 -9 70 -82 91 -144 26 -76 26 -244 1 -317 l-19 -53 -49 0 -50 0 35 30 c75 67 100 194 55 287 -26 53 -86 106 -139 122 -35 10 -39 14 -30 31 21 40 66 58 105 44z m2121 -46 c33 -30 72 -125 85 -207 20 -130 -25 -311 -89 -362 -35 -27 -78 -24 -107 7 -29 31 -31 44 -10 44 55 0 153 89 173 159 26 84 9 168 -46 231 -34 40 -97 80 -127 80 -18 0 -19 5 -5 30 14 27 61 50 85 43 11 -3 30 -14 41 -25z m-2706 -404 l0 -346 -22 6 c-17 5 -150 32 -175 36 -8 1 -1 527 6 538 6 11 174 109 189 112 1 0 2 -156 2 -346z m487 204 c30 -28 31 -83 1 -115 -21 -22 -27 -23 -175 -23 l-153 0 0 80 0 80 152 0 c142 0 153 -1 175 -22z m2098 -23 c15 -15 25 -36 25 -54 0 -78 -29 -91 -210 -91 l-140 0 0 85 0 85 150 0 c147 0 152 -1 175 -25z m-174 -352 c12 -26 43 -68 68 -94 l46 -47 -53 -7 c-45 -6 -126 -26 -204 -52 -17 -5 -18 5 -18 121 l0 126 69 0 69 0 23 -47z m-673 -185 c2 -119 1 -128 -16 -128 -34 0 -116 32 -192 76 -140 80 -277 111 -445 100 -129 -7 -196 -26 -324 -88 -57 -28 -127 -57 -155 -64 -125 -33 -274 -27 -391 17 l-55 20 0 100 0 99 788 -2 787 -3 3 -127z"></path> <path d="M926 634 c-39 -8 -95 -26 -125 -38 -66 -27 -470 -270 -489 -294 -14 -19 -16 -66 -2 -92 15 -28 61 -40 96 -25 16 7 119 67 229 134 226 137 283 160 426 168 126 7 217 -13 351 -79 147 -71 225 -90 378 -91 157 -1 228 16 380 88 145 69 232 89 360 82 114 -6 194 -30 292 -87 180 -103 389 -133 598 -84 36 9 124 44 195 79 147 72 198 85 325 85 170 0 223 -21 510 -199 107 -67 205 -121 218 -121 28 0 82 51 82 78 0 38 -42 72 -248 198 -301 186 -370 209 -597 201 -154 -6 -225 -25 -361 -98 -116 -62 -192 -82 -319 -83 -148 0 -187 11 -388 117 -106 55 -189 72 -347 72 -159 -1 -250 -22 -368 -85 -117 -63 -198 -84 -327 -84 -131 0 -188 15 -330 85 -55 27 -127 56 -160 65 -87 23 -293 28 -379 8z"></path> </g> </svg>
