<svg version="1.0" xmlns="http://www.w3.org/2000/svg" preserveAspectRatio="xMidYMid meet"
    viewBox="107 0.11 298 511.19">
    <g transform="translate(0.000000,512.000000) scale(0.100000,-0.100000)" stroke="none">
        <path
            d="M2320 5105 c-452 -56 -899 -275 -1192 -583 -51 -53 -58 -66 -58 -100 0 -48 28 -86 74 -102 48 -15 71 -3 178 93 172 154 307 245 484 325 265 119 469 164 754 164 285 0 489 -45 754 -164 178 -81 310 -170 488 -329 103 -92 133 -105 184 -84 42 17 64 51 64 98 0 32 -8 47 -52 94 -132 140 -351 298 -551 396 -343 169 -751 238 -1127 192z">
        </path>
        <path
            d="M2400 4470 c-219 -27 -423 -100 -604 -217 -92 -59 -191 -139 -243 -196 -37 -40 -43 -53 -43 -90 0 -48 23 -81 68 -98 42 -16 80 0 150 63 244 222 517 330 832 330 315 0 588 -108 832 -330 70 -63 108 -79 150 -63 46 17 68 50 68 100 0 44 -3 49 -78 122 -185 178 -463 319 -717 364 -112 20 -316 27 -415 15z">
        </path>
        <path
            d="M2435 3824 c-201 -33 -445 -172 -485 -278 -22 -60 31 -136 97 -136 31 0 55 14 132 77 226 184 559 175 791 -22 50 -43 71 -55 98 -55 70 0 125 74 102 136 -32 85 -228 213 -395 259 -60 16 -280 28 -340 19z">
        </path>
        <path
            d="M2427 3190 c-282 -51 -511 -223 -632 -473 -85 -178 -80 -107 -80 -1117 0 -1010 -5 -939 80 -1117 106 -219 293 -377 530 -449 80 -24 106 -27 235 -27 129 0 155 3 235 27 237 72 424 230 530 449 85 178 80 107 80 1117 0 1010 5 939 -80 1117 -140 288 -415 468 -735 478 -63 2 -137 0 -163 -5z m278 -221 c69 -15 200 -80 257 -127 103 -87 170 -186 210 -312 l23 -75 0 -855 0 -855 -23 -75 c-56 -177 -170 -309 -337 -390 -101 -48 -167 -63 -275 -63 -108 0 -174 15 -275 63 -167 81 -281 213 -337 390 l-23 75 0 855 0 855 23 75 c102 325 420 510 757 439z">
        </path>
        <path
            d="M2445 2757 c-259 -86 -379 -352 -266 -592 123 -264 473 -324 679 -118 136 136 165 351 68 516 -38 65 -117 134 -194 170 -57 27 -80 32 -157 34 -55 2 -105 -2 -130 -10z m178 -208 c52 -14 112 -71 133 -124 24 -65 16 -144 -22 -198 -113 -160 -366 -96 -382 98 -13 155 121 266 271 224z">
        </path>
    </g>
</svg>
